<?xml version="1.0" encoding="UTF-8"?>
<svg width="3003px" height="669px" viewBox="0 0 3003 669" version="1.1" xmlns="http://www.w3.org/2000/svg" xmlns:xlink="http://www.w3.org/1999/xlink">
    <!-- Generator: Sketch 61 (89581) - https://sketch.com -->
    <title>cspdao-logo-outlined</title>
    <desc>Created with Sketch.</desc>
    <g id="Page-1" stroke="none" stroke-width="1" fill="none" fill-rule="evenodd">
        <g id="cspdao-logo-outlined" transform="translate(11.000000, 11.000000)">
            <g id="leaf">
                <path d="M335.981998,1.83421386 L336.136686,1.83421386 C336.715404,1.83914929 336.715404,1.83914929 337.284454,1.85856502 L338.136175,1.89962428 L339.879804,1.93529368 L340.00678,1.96075159 L340.146978,1.96309397 L340.286067,1.97936066 L511.007347,1.24042199 L590.490242,0.869149495 L611.569278,0.795037432 L624.635663,0.721103468 L646.44456,0.527634736 L646.353352,13.9678388 L646.205283,35.786696 L646.057035,59.8599724 L645.538697,128.224456 L644.354009,306.614565 C644.354009,307.466106 644.312969,308.171556 644.194853,308.863287 L644.131568,319.837397 L644.057507,331.790372 L644.028599,332.586381 C644.018977,332.73107 644.014695,332.812335 644.004665,333.023348 L643.934797,334.856855 L643.90113,335.449535 C643.523079,345.985026 642.620994,356.624861 641.206895,367.49278 L641.200279,367.542858 C631.918533,436.809115 600.457005,501.307607 549.987192,551.900704 C424.368755,677.825999 220.525881,677.849954 94.8835465,551.900704 C-30.7660602,425.94416 -30.7660602,221.881781 94.8835465,95.925238 C145.203034,45.4828311 209.569668,13.9618602 278.834378,4.47554209 C298.007274,1.90772314 317.051393,1.01378666 335.981998,1.83421386 Z" id="Path" stroke="#FFFFFF" stroke-width="22"></path>
                <path d="M589.153141,409.549868 C576.042716,449.894818 553.322948,487.783342 521.291801,519.791329 C415.961465,625.045497 247.313743,628.469609 137.96089,529.914784 L219.3796,448.554949 C314.2067,530.510283 473.170586,513.389732 589.153141,409.549868 Z M237.555416,58.2063865 C133.863883,173.732887 116.656452,332.060765 197.851689,426.893731 L116.358488,508.328003 C18.551747,398.979788 22.2018079,230.975077 127.23418,126.018656 C159.265328,94.0106687 197.255761,71.3817669 237.555416,58.2063865 Z M606.658537,194.798608 C605.764645,196.287352 604.870753,197.776096 603.902367,199.190401 C603.753388,199.488151 603.529915,199.711462 603.380932,200.009211 L602.636018,313.153722 C602.933986,320.001943 602.859491,326.9246 602.636018,333.698383 C602.412545,339.727795 601.965599,345.682769 601.29518,351.712181 C595.3359,358.709275 588.706195,365.929681 582.002002,372.629027 C476.671666,477.883197 327.689578,498.13011 241.726914,426.074921 L333.499879,334.368318 C384.22828,366.599615 478.757415,336.303684 554.365824,260.749948 C556.600553,258.516833 558.835288,256.283718 560.995528,253.976165 C568.370141,246.160261 575.372297,238.121046 581.778529,230.081831 L585.130623,225.838912 L585.130623,225.838912 C585.205117,225.764474 585.279607,225.690038 585.354096,225.6156 L585.980289,224.789813 L585.980289,224.789813 L587.260605,223.166152 C587.472439,222.893991 587.681945,222.619504 587.886793,222.340364 C593.473622,214.971083 598.613505,207.452929 603.306437,199.934773 C603.455421,199.7859 603.529915,199.562588 603.678894,199.413713 C604.796258,197.850533 605.764645,196.287352 606.658537,194.798608 Z M451.643271,40.3414634 L451.717166,40.4159009 L451.717166,40.4159009 C449.85489,41.5324584 447.992614,42.6490159 446.130338,43.8517286 L445.012971,44.584383 L445.012971,44.584383 C436.818957,49.7949849 428.624942,55.601085 420.57991,61.853808 L416.557393,64.98017 L416.557393,64.98017 C408.43787,71.4562042 400.467328,78.378862 392.645769,85.7481423 C390.336546,87.9068208 388.101814,90.139936 385.867083,92.3730512 C310.407656,167.777913 280.01531,262.015381 312.046459,312.781536 L220.273494,404.48814 C148.911074,318.438762 169.470602,170.159903 274.428483,65.277918 C281.132677,58.5785719 288.358307,51.9536634 295.360465,45.9986895 C307.651488,44.7332569 319.94251,44.2121975 332.233532,44.584383 C334.989701,44.6588205 337.671378,44.8076944 340.353056,44.9565684 L444.938481,44.5099454 C445.012971,44.4355089 445.087463,44.3610714 445.236446,44.3610714 C447.396685,42.9467649 449.556926,41.6813335 451.642675,40.3414634 L451.643271,40.3414634 Z M604.64728,43.7655734 L604.64728,43.9144484 L604.498296,63.5658635 L604.05135,122.668982 C603.976861,122.74342 603.976861,122.892294 603.902367,122.966732 C603.827877,123.338917 603.678894,123.78554 603.604404,124.157727 C600.177816,136.365424 595.186916,148.945307 588.706195,161.52519 C583.491823,171.946394 577.160081,182.442037 570.083435,192.788805 C566.656847,197.850533 563.006785,202.837824 559.13325,207.750677 C552.727018,215.938767 545.873846,223.977982 538.499232,231.793886 C536.338992,234.101438 534.104261,236.334554 531.869528,238.567669 C495.666882,274.744138 454.026389,300.27609 416.259429,310.622859 C383.036423,319.853068 357.634978,316.056772 344.152099,302.583642 C330.669221,289.110514 326.944668,263.652999 336.107066,230.230705 C346.535812,192.416619 372.086241,150.806236 408.214396,114.704205 C410.449128,112.471089 412.683859,110.237974 414.993081,108.079295 C422.81464,100.710015 430.859674,93.7129209 439.053688,87.4601982 C443.895606,83.6639013 448.886507,80.0164801 453.802915,76.5923698 C464.15717,69.5208373 474.660407,63.1936769 485.014663,57.9086374 C496.188318,52.2514125 507.361976,47.6363075 518.237668,44.2121975 C518.312159,44.13776 518.386649,44.2121975 518.461141,44.13776 L586.843917,43.8400109 L604.200334,43.7655734 L604.64728,43.7655734 Z" id="fill" fill="#3BEEED" fill-rule="nonzero"></path>
            </g>
            <path d="M965.700884,554 C1001.26325,554 1032.49145,547.449022 1059.38549,534.347067 C1086.27953,521.245112 1107.17242,502.702514 1122.06416,478.719274 C1136.9559,454.736034 1144.40177,426.977654 1144.40177,395.444134 C1144.40177,393.667598 1143.62384,392.113128 1142.06799,390.780726 C1140.51213,389.448324 1138.62288,388.782123 1136.40024,388.782123 L1136.40024,388.782123 L1041.71544,384.118715 C1036.38108,384.118715 1033.71391,386.561453 1033.71391,391.446927 C1033.71391,411.877095 1027.49049,428.310056 1015.04366,440.74581 C1002.59684,453.181564 986.149243,459.399441 965.700884,459.399441 C945.252524,459.399441 928.80493,453.181564 916.358102,440.74581 C903.911275,428.310056 897.687861,411.877095 897.687861,391.446927 L897.687861,391.446927 L897.687861,240.219274 C897.687861,219.789106 903.911275,203.245112 916.358102,190.587291 C928.80493,177.929469 945.252524,171.600559 965.700884,171.600559 C986.149243,171.600559 1002.59684,177.818436 1015.04366,190.25419 C1027.49049,202.689944 1033.71391,219.344972 1033.71391,240.219274 C1033.71391,245.104749 1036.38108,247.547486 1041.71544,247.547486 L1041.71544,247.547486 L1136.40024,241.551676 C1138.62288,241.551676 1140.51213,240.885475 1142.06799,239.553073 C1143.62384,238.22067 1144.40177,236.444134 1144.40177,234.223464 C1144.40177,203.134078 1136.9559,175.708799 1122.06416,151.947626 C1107.17242,128.186453 1086.27953,109.754888 1059.38549,96.652933 C1032.49145,83.5509777 1001.26325,77 965.700884,77 C930.138519,77 898.910317,83.8840782 872.016279,97.6522346 C845.12224,111.420391 824.229351,130.851257 809.33761,155.944832 C794.44587,181.038408 787,210.018156 787,242.884078 L787,242.884078 L787,386.78352 C787,420.093575 794.44587,449.406425 809.33761,474.722067 C824.229351,500.037709 845.12224,519.579609 872.016279,533.347765 C898.910317,547.115922 930.138519,554 965.700884,554 Z M1358.8334,554 C1393.95123,554 1424.7349,548.337291 1451.18441,537.011872 C1477.63392,525.686453 1498.19341,509.586592 1512.86289,488.712291 C1527.53237,467.837989 1534.8671,442.96648 1534.8671,414.097765 C1534.8671,384.784916 1527.19897,361.134777 1511.8627,343.147346 C1496.52643,325.159916 1480.18997,312.168994 1462.85331,304.174581 C1445.51666,296.180168 1421.2898,286.853352 1390.17273,276.194134 C1363.05643,267.311453 1342.94147,260.094274 1329.82784,254.542598 C1316.71422,248.990922 1307.0457,242.995112 1300.82229,236.555168 C1294.59888,230.115223 1291.48717,222.009777 1291.48717,212.238827 C1291.48717,199.358939 1296.37699,189.365922 1306.15664,182.259777 C1315.93629,175.153631 1329.49445,171.600559 1346.8311,171.600559 C1369.94664,171.600559 1388.39461,177.596369 1402.17503,189.587989 C1415.95545,201.579609 1422.84565,215.347765 1422.84565,230.892458 L1422.84565,230.892458 L1422.84565,235.555866 C1422.84565,237.776536 1423.62358,239.664106 1425.17943,241.218575 C1426.73529,242.773045 1428.62454,243.550279 1430.84719,243.550279 L1430.84719,243.550279 L1523.5316,243.550279 C1525.75425,243.550279 1527.6435,242.773045 1529.19935,241.218575 C1530.7552,239.664106 1531.53313,237.776536 1531.53313,235.555866 L1531.53313,235.555866 L1531.53313,226.22905 C1531.53313,196.916201 1523.75386,170.934358 1508.19533,148.28352 C1492.6368,125.632682 1471.18824,108.089385 1443.84968,95.6536313 C1416.51111,83.2178771 1385.72744,77 1351.49866,77 C1319.048,77 1289.93132,82.551676 1264.1486,93.6550279 C1238.36589,104.75838 1218.25092,120.636173 1203.80371,141.288408 C1189.3565,161.940642 1182.1329,186.034916 1182.1329,213.571229 C1182.1329,241.99581 1189.6899,265.868017 1204.8039,285.187849 C1219.91791,304.507682 1238.14362,319.60824 1259.48104,330.489525 C1280.81846,341.37081 1305.93438,351.47486 1334.8288,360.801676 C1337.05145,361.689944 1339.49636,362.467179 1342.16354,363.13338 C1344.83072,363.799581 1347.49789,364.798883 1350.16507,366.131285 C1369.72437,372.793296 1384.17158,378.011872 1393.5067,381.787011 C1402.84182,385.562151 1410.28769,390.225559 1415.84431,395.777235 C1421.40093,401.328911 1424.17924,408.546089 1424.17924,417.428771 C1424.17924,428.532123 1419.51168,438.303073 1410.17656,446.74162 C1400.84144,455.180168 1386.39423,459.399441 1366.83493,459.399441 C1341.94127,459.399441 1322.15971,453.958799 1307.49023,443.077514 C1292.82076,432.196229 1285.48602,419.427374 1285.48602,404.77095 L1285.48602,404.77095 L1285.48602,396.776536 C1285.48602,394.555866 1284.70809,392.668296 1283.15224,391.113827 C1281.59639,389.559358 1279.70714,388.782123 1277.48449,388.782123 L1277.48449,388.782123 L1184.80007,388.782123 C1182.57743,388.782123 1180.68818,389.559358 1179.13232,391.113827 C1177.57647,392.668296 1176.79854,394.555866 1176.79854,396.776536 L1176.79854,396.776536 L1176.79854,409.434358 C1176.79854,438.303073 1184.24441,463.729749 1199.13615,485.714385 C1214.02789,507.699022 1235.14305,524.576117 1262.48161,536.34567 C1289.82018,548.115223 1321.93744,554 1358.8334,554 Z M1678.61853,548.670391 C1680.84118,548.670391 1682.73043,547.893156 1684.28629,546.338687 C1685.84214,544.784218 1686.62007,542.896648 1686.62007,540.675978 L1686.62007,540.675978 L1686.62007,380.121508 C1686.62007,377.900838 1687.73139,376.790503 1689.95404,376.790503 L1689.95404,376.790503 L1771.30295,376.790503 C1802.86455,376.790503 1830.64764,370.794693 1854.65224,358.803073 C1878.65684,346.811453 1897.21594,329.712291 1910.32957,307.505587 C1923.44319,285.298883 1930,259.761173 1930,230.892458 C1930,201.579609 1923.66545,175.708799 1910.99636,153.280028 C1898.32727,130.851257 1880.32382,113.418994 1856.98602,100.98324 C1833.64822,88.547486 1806.86531,82.3296089 1776.6373,82.3296089 L1776.6373,82.3296089 L1583.93374,82.3296089 C1581.71109,82.3296089 1579.82184,83.1068436 1578.26598,84.6613128 C1576.71013,86.2157821 1575.9322,88.103352 1575.9322,90.3240223 L1575.9322,90.3240223 L1575.9322,540.675978 C1575.9322,542.896648 1576.71013,544.784218 1578.26598,546.338687 C1579.82184,547.893156 1581.71109,548.670391 1583.93374,548.670391 L1583.93374,548.670391 L1678.61853,548.670391 Z M1758.63385,288.851955 L1689.95404,288.851955 C1687.73139,288.851955 1686.62007,287.74162 1686.62007,285.52095 L1686.62007,285.52095 L1686.62007,180.261173 C1686.62007,178.040503 1687.73139,176.930168 1689.95404,176.930168 L1689.95404,176.930168 L1758.63385,176.930168 C1776.85957,176.930168 1791.64017,182.148743 1802.97568,192.585894 C1814.31118,203.023045 1819.97893,216.680168 1819.97893,233.557263 C1819.97893,249.990223 1814.31118,263.314246 1802.97568,273.52933 C1791.64017,283.744413 1776.85957,288.851955 1758.63385,288.851955 L1758.63385,288.851955 Z" id="csp" fill="#FFFFFF" fill-rule="nonzero"></path>
            <path d="M2845.28283,76 C2890.18718,76 2925.86612,88.564299 2952.31967,113.692897 C2978.77322,138.821495 2992,172.289229 2992,214.0961 C2992,224.770195 2991.5554,232.998143 2990.66621,238.779944 L2990.66621,238.779944 L2971.99311,390.885794 L2971.53972,394.349939 C2967.23723,425.397055 2956.94031,452.928969 2940.64899,476.945682 C2923.75429,501.851903 2901.96901,521.087512 2875.29316,534.652507 C2848.61731,548.217502 2819.05158,555 2786.59596,555 C2742.13621,555 2706.79071,542.435701 2680.55946,517.307103 C2654.32821,492.178505 2641.21259,458.488394 2641.21259,416.236769 C2641.21259,405.11792 2641.65718,396.667595 2642.54638,390.885794 L2642.54638,390.885794 L2661.21947,238.779944 L2661.67243,235.363026 C2665.96728,204.737121 2676.15318,177.52303 2692.23015,153.720752 C2708.90255,129.036908 2730.46553,109.912488 2756.91908,96.347493 C2783.37263,82.7824977 2812.82721,76 2845.28283,76 Z M2094.24317,81.3370474 L2097.31819,81.3557 C2138.11219,81.8531049 2170.65429,92.2986051 2194.9445,112.692201 C2219.84196,133.595636 2232.29069,162.059889 2232.29069,198.084958 C2232.29069,202.532498 2231.84609,209.203807 2230.95689,218.098886 L2230.95689,218.098886 L2207.61552,411.566852 L2207.24075,414.341293 C2201.46383,454.847067 2183.36026,487.167611 2152.93003,511.302925 C2121.80821,535.986769 2083.12823,548.328691 2036.89009,548.328691 L2036.89009,548.328691 L1878.83569,548.328691 L1878.0229,548.292205 C1876.17505,548.121949 1874.66758,547.355792 1873.50052,545.993733 C1872.16672,544.437094 1871.72213,542.54689 1872.16672,540.32312 L1872.16672,540.32312 L1892.73842,372.739279 C1911.20592,359.538171 1926.23635,343.109286 1937.8297,323.452624 C1954.06809,295.920237 1962.18729,264.257992 1962.18729,228.465888 C1962.18729,192.123137 1954.34332,160.047906 1938.65538,132.240195 C1934.50249,124.878976 1929.88671,117.951862 1924.80806,111.458853 L1927.51911,89.3426184 L1927.74367,88.4099964 C1928.26086,86.5855977 1929.18635,85.0062674 1930.52014,83.6720056 C1932.07623,82.1153668 1933.96577,81.3370474 1936.18876,81.3370474 L1936.18876,81.3370474 L2094.24317,81.3370474 Z M2497.43919,81.3370474 L2498.21872,81.3666976 C2501.75969,81.6434336 2503.94514,83.8573197 2504.77505,88.0083565 L2504.77505,88.0083565 L2590.80466,538.988858 L2590.80466,540.990251 L2590.77697,541.828204 C2590.4816,546.16186 2587.82325,548.328691 2582.80191,548.328691 L2582.80191,548.328691 L2518.11297,548.328691 L2517.33345,548.299041 C2513.79248,548.022303 2511.60703,545.808418 2510.77712,541.657382 L2510.77712,541.657382 L2498.10609,470.274373 L2498.06441,469.91996 C2497.98105,469.544699 2497.77264,469.106894 2497.43919,468.606546 C2496.99459,467.939415 2496.3277,467.60585 2495.4385,467.60585 L2495.4385,467.60585 L2324.71307,467.60585 L2324.35878,467.647545 C2323.48348,467.842125 2322.26778,468.717734 2320.71169,470.274373 L2320.71169,470.274373 L2290.70136,541.657382 L2290.41089,542.517239 C2288.94471,546.391539 2285.92935,548.328691 2281.36482,548.328691 L2281.36482,548.328691 L2216.67588,548.328691 L2215.8155,548.295747 C2213.598,548.120043 2211.99526,547.241516 2211.00726,545.660167 C2209.89577,543.881151 2210.00692,541.657382 2211.34071,538.988858 L2211.34071,538.988858 L2407.4082,88.0083565 L2407.89816,87.0893498 C2410.08032,83.2544817 2413.02918,81.3370474 2416.74475,81.3370474 L2416.74475,81.3370474 L2497.43919,81.3370474 Z M2837.28008,142.713092 C2810.15963,142.713092 2787.48516,151.385794 2769.25666,168.731198 C2751.02816,186.076602 2740.13553,209.203807 2736.57875,238.112813 L2736.57875,238.112813 L2717.23876,393.554318 L2717.02572,395.296271 C2716.27855,401.547534 2715.90496,406.303931 2715.90496,409.56546 C2715.90496,433.582173 2723.01852,452.706592 2737.24564,466.938719 C2751.47276,481.170845 2770.59045,488.286908 2794.59872,488.286908 C2821.71916,488.286908 2844.61593,479.725395 2863.28903,462.602368 C2881.96212,445.479341 2893.07706,422.463324 2896.63384,393.554318 L2896.63384,393.554318 L2915.30693,238.112813 L2915.51997,236.37086 C2916.26714,230.119596 2916.64073,225.3632 2916.64073,222.101671 C2916.64073,198.084958 2909.52717,178.84935 2895.30005,164.394847 C2881.07293,149.940344 2861.73294,142.713092 2837.28008,142.713092 Z M2088.2411,148.050139 L1998.21011,148.050139 L1997.68993,148.090167 C1997.01414,148.196908 1996.40949,148.517131 1995.87597,149.050836 C1995.20908,149.717967 1994.87563,150.496286 1994.87563,151.385794 L1994.87563,151.385794 L1954.86186,478.279944 L1954.68822,478.773384 C1954.11998,480.668194 1955.06705,481.615599 1957.52944,481.615599 L1957.52944,481.615599 L2048.22733,481.615599 C2070.9018,481.615599 2090.01949,474.16597 2105.5804,459.266713 C2121.14131,444.367456 2130.47786,424.464717 2133.59004,399.558496 L2133.59004,399.558496 L2154.93072,230.774373 L2155.04646,229.886703 C2155.4139,226.799155 2155.59762,222.425129 2155.59762,216.764624 C2155.59762,195.416435 2149.59555,178.626973 2137.59142,166.39624 C2125.58729,154.165506 2109.13718,148.050139 2088.2411,148.050139 L2088.2411,148.050139 Z M2444.75439,176.736769 C2443.8652,176.736769 2443.1983,177.626277 2442.7537,179.405292 L2442.7537,179.405292 L2349.38823,402.89415 L2349.13304,403.445555 C2348.15991,405.746476 2348.91188,406.896936 2351.38892,406.896936 L2351.38892,406.896936 L2482.76748,406.896936 C2485.43506,406.896936 2486.32425,405.562674 2485.43506,402.89415 L2485.43506,402.89415 L2446.75508,179.405292 L2446.57793,178.779857 C2446.14029,177.417798 2445.53244,176.736769 2444.75439,176.736769 Z" id="dao" fill="#3BEEED" fill-rule="nonzero"></path>
        </g>
    </g>
</svg>