<svg width="121" height="38" viewBox="0 0 121 38" fill="none" xmlns="http://www.w3.org/2000/svg">
<path d="M49.9704 7.78957C49.4784 8.19096 49.2323 8.71278 49.2323 9.35502C49.2323 9.99725 49.5194 10.5191 50.1344 10.8803C50.7084 11.2416 52.1025 11.7233 54.2346 12.2451C56.3667 12.7669 58.0478 13.5295 59.2369 14.5732C60.426 15.6168 61 17.1421 61 19.1089C61 21.1159 60.221 22.7215 58.7039 23.9658C57.1868 25.2102 55.1777 25.8123 52.6765 25.8123C49.0683 25.8123 45.8702 24.5278 43 21.9187L46.0342 18.3062C48.4943 20.3934 50.7494 21.437 52.7995 21.437C53.7426 21.437 54.4396 21.2363 54.9727 20.8349C55.5057 20.4335 55.7517 19.9117 55.7517 19.2294C55.7517 18.547 55.4647 18.0252 54.8907 17.6238C54.3166 17.2224 53.2096 16.821 51.5695 16.4196C48.9453 15.8175 47.0182 15.0147 45.7882 14.0112C44.5581 13.0479 43.9431 11.4824 43.9431 9.39515C43.9431 7.30789 44.7221 5.66217 46.2802 4.53826C47.8383 3.41435 49.7654 2.81226 52.0615 2.81226C53.5786 2.81226 55.0957 3.05309 56.6128 3.57491C58.1298 4.09672 59.4419 4.81924 60.549 5.74245L58.0068 9.35502C56.0387 7.90999 53.9886 7.14734 51.8975 7.14734C51.1185 7.22762 50.4214 7.42831 49.9704 7.78957Z" fill="white"/>
<path d="M121 21.5351V25.8123H104.04V22.4228L112.68 14.1912C114.68 12.2947 115.04 11.1245 115.04 10.0351C115.04 8.25962 113.84 7.2105 111.44 7.2105C109.52 7.2105 107.88 7.93682 106.8 9.47015L103 7.00874C104.72 4.46664 107.88 2.81226 111.92 2.81226C116.92 2.81226 120.24 5.39471 120.24 9.5105C120.24 11.7298 119.64 13.707 116.48 16.6526L111.32 21.5754H121V21.5351Z" fill="white"/>
<path d="M74 2.81226H79.3684V21.462H91V25.8123H74V2.81226Z" fill="white"/>
<path d="M43 33.269C43 31.2382 44.4595 29.8123 46.4054 29.8123C47.5 29.8123 48.3919 30.2444 49 31.0221L48.0676 31.9295C47.6622 31.411 47.0946 31.1518 46.4865 31.1518C45.3108 31.1518 44.4595 32.016 44.4595 33.3123C44.4595 34.5653 45.3108 35.4727 46.4865 35.4727C47.1351 35.4727 47.6622 35.2135 48.0676 34.695L49 35.6024C48.3919 36.3802 47.5 36.8123 46.4054 36.8123C44.4595 36.7258 43 35.2999 43 33.269Z" fill="white"/>
<path d="M60.9483 35.5348H58.0517L57.4885 36.8123H56L58.7759 30.8123H60.2241L63 36.8123H61.4713L60.9483 35.5348ZM60.5057 34.451L59.5 32.1671L58.4943 34.451H60.5057Z" fill="white"/>
<path d="M75 33.0046C75 34.3507 74.0298 35.1584 72.5 35.1584H71.3433V36.8123H70V30.8123H72.5C74.0298 30.8123 75 31.6584 75 33.0046ZM73.6567 33.0046C73.6567 32.3507 73.2463 31.9661 72.4254 31.9661H71.3433V34.043H72.4254C73.2463 34.043 73.6567 33.6584 73.6567 33.0046Z" fill="white"/>
<path d="M84 30.8123H83V36.8123H84V30.8123Z" fill="white"/>
<path d="M93.2059 31.9661H91V30.8123H97V31.9661H94.7941V36.8123H93.2059V31.9661Z" fill="white"/>
<path d="M107.948 35.5348H105.052L104.489 36.8123H103L105.776 30.8123H107.224L110 36.8123H108.471L107.948 35.5348ZM107.506 34.451L106.5 32.1671L105.494 34.451H107.506Z" fill="white"/>
<path d="M117 30.8123H118.263V35.6969H121V36.8123H117V30.8123Z" fill="white"/>
<path d="M14.8196 5.9584H5.99561V8.1557H14.8196V5.9584Z" fill="white"/>
<path fill-rule="evenodd" clip-rule="evenodd" d="M6.39313 23.7347V25.932V29.6734V31.8509H8.59914V23.7347H6.39313Z" fill="white"/>
<path d="M32.8056 29.6536H24.3989V31.8509H32.8056V29.6536Z" fill="white"/>
<path fill-rule="evenodd" clip-rule="evenodd" d="M32.3883 14.0548V5.93863H30.1823L30.2021 14.0548H32.3883Z" fill="white"/>
<path fill-rule="evenodd" clip-rule="evenodd" d="M19.1721 0.0197954H0.430908L0.450782 37.7895L19.6093 37.7697H38.3504V0L19.1721 0.0197954ZM36.1444 2.19729L36.1643 17.7961H32.3883H26.4459V2.21709L36.1444 2.19729ZM2.63692 8.15572V5.95843H2.61705V2.23689H14.7998H16.6282H18.1187H18.2181V11.8773H16.4891H2.65679L2.63692 8.15572ZM2.65679 35.5922V23.7347V19.9934H4.50507H12.3553V35.5922H2.65679ZM18.2976 23.7347V35.5922H14.5414L14.5216 17.8159H2.61705V14.0746H18.2181L18.2579 18.8255V20.0132H20.4639L20.444 18.7661V2.21709H24.2002L24.2399 19.9934H36.1444V23.7347H35.9457H32.1895H24.3989H18.2976ZM36.1643 32.7417V35.5724H20.6626L20.6229 31.8311H20.6427V29.6338H20.603L20.5632 25.8924L36.1444 25.8727V28.9607V32.7417H36.1643Z" fill="white"/>
</svg>
