<?xml version="1.0" encoding="iso-8859-1"?>
<!-- Generator: Adobe Illustrator 19.0.0, SVG Export Plug-In . SVG Version: 6.00 Build 0)  -->
<svg version="1.1" id="Capa_1" xmlns="http://www.w3.org/2000/svg" xmlns:xlink="http://www.w3.org/1999/xlink" x="0px" y="0px"
	 viewBox="0 0 512 512" style="enable-background:new 0 0 512 512;" xml:space="preserve">
<g>
	<g>
		<path d="M263.07,339.891c-1.86-1.86-4.44-2.93-7.07-2.93s-5.21,1.069-7.07,2.93c-1.86,1.86-2.93,4.439-2.93,7.07
			c0,2.63,1.07,5.21,2.93,7.069c1.86,1.861,4.44,2.931,7.07,2.931s5.21-1.07,7.07-2.931c1.86-1.859,2.93-4.439,2.93-7.069
			C266,344.33,264.93,341.751,263.07,339.891z" fill="#F5B60E"/>
	</g>
</g>
<g>
	<g>
		<path d="M509.07,141.481c-1.86-1.86-4.44-2.93-7.07-2.93s-5.21,1.069-7.07,2.93c-1.86,1.86-2.93,4.44-2.93,7.07
			s1.07,5.21,2.93,7.069c1.86,1.86,4.44,2.931,7.07,2.931s5.21-1.07,7.07-2.931c1.86-1.859,2.93-4.439,2.93-7.069
			S510.93,143.341,509.07,141.481z" fill="#F5B60E"/>
	</g>
</g>
<g>
	<g>
		<path d="M502,106.976c5.523,0,10-4.478,10-10V29.954c0-16.511-13.458-29.943-30-29.943H30c-16.542,0-30,13.432-30,29.942v333.025
			c0,16.511,13.458,29.943,30,29.943h172.168v54.264c-28.241,2.287-50.526,25.985-50.526,54.804c0,5.522,4.477,10,10,10h188.712
			c5.523,0,10-4.478,10-10c0-28.819-22.284-52.516-50.523-54.804v-54.264H482c16.542,0,30-13.433,30-29.943v-172.63
			c0-5.522-4.477-10-10-10s-10,4.478-10,10v110.684H20V29.954c0-5.482,4.486-9.942,10-9.942h452c5.514,0,10,4.46,10,9.942v67.022
			C492,102.498,496.477,106.976,502,106.976z M338.9,491.991H173.098c4.313-14.442,17.72-25.002,33.546-25.002h98.709
			C321.179,466.989,334.586,477.548,338.9,491.991z M222.168,446.989v-52.998h67.663v52.998H222.168z M492,321.032v41.947
			c0,5.482-4.486,9.943-10,9.943H30c-5.514,0-10-4.461-10-9.943v-41.947H492z" fill="#F5B60E"/>
	</g>
</g>
<g>
	<g>
		<path d="M234.21,176.293h-28.428c-5.523,0-10,4.478-10,10c0,5.522,4.477,10,10,10h4.285l-44.989,44.989l-36.925-36.925
			c-3.905-3.904-10.237-3.904-14.143,0l-57.082,57.082c-3.905,3.905-3.906,10.237,0,14.143c1.953,1.952,4.512,2.929,7.071,2.929
			s5.119-0.977,7.071-2.929l50.012-50.011l36.925,36.925c1.875,1.875,4.419,2.929,7.071,2.929c2.652,0,5.196-1.054,7.071-2.929
			l52.06-52.061v4.285c0.001,5.524,4.478,10.001,10.001,10.001s10-4.478,10-10v-28.428
			C244.21,180.771,239.733,176.293,234.21,176.293z" fill="#F5B60E"/>
	</g>
</g>
<g>
	<g>
		<path d="M362.333,214.511H296c-5.523,0-10,4.478-10,10c0,5.522,4.477,10,10,10h66.333c5.523,0,10-4.477,10-10
			C372.333,218.989,367.856,214.511,362.333,214.511z" fill="#F5B60E"/>
	</g>
</g>
<g>
	<g>
		<path d="M448,214.511h-37c-5.523,0-10,4.478-10,10c0,5.522,4.477,10,10,10h37c5.523,0,10-4.478,10-10
			C458,218.989,453.523,214.511,448,214.511z" fill="#F5B60E"/>
	</g>
</g>
<g>
	<g>
		<path d="M303.07,261.441c-1.86-1.86-4.44-2.93-7.07-2.93s-5.21,1.07-7.07,2.93c-1.86,1.86-2.93,4.44-2.93,7.07
			s1.07,5.21,2.93,7.069c1.86,1.86,4.44,2.931,7.07,2.931s5.21-1.07,7.07-2.931c1.86-1.859,2.93-4.439,2.93-7.069
			S304.93,263.301,303.07,261.441z" fill="#F5B60E"/>
	</g>
</g>
<g>
	<g>
		<path d="M448,258.511H339c-5.523,0-10,4.478-10,10c0,5.522,4.477,10,10,10h109c5.523,0,10-4.478,10-10
			C458,262.989,453.523,258.511,448,258.511z" fill="#F5B60E"/>
	</g>
</g>
<g>
	<g>
		<path d="M357.119,54.011c-38.598,0-70,31.402-70,70c0,38.598,31.402,70,70,70c38.598,0,70-31.402,70-70
			C427.119,85.413,395.717,54.011,357.119,54.011z M357.119,174.011c-27.57,0-50-22.43-50-50c0-24.146,17.205-44.348,40-48.994
			v48.994c0,5.522,4.477,10,10,10h48.994C401.467,156.806,381.266,174.011,357.119,174.011z M367.119,114.011V75.017
			c19.563,3.987,35.007,19.431,38.994,38.994H367.119z" fill="#F5B60E"/>
	</g>
</g>
<g>
	<g>
		<path d="M235.887,63.249c-0.922-3.462-3.626-6.165-7.087-7.087c-1.721-0.461-42.483-10.896-71.931,18.553
			c-4.467,4.467-8.017,9.201-10.832,14.024c-2.815-4.823-6.365-9.557-10.832-14.024c-29.448-29.448-70.21-19.014-71.931-18.553
			c-3.461,0.922-6.165,3.625-7.087,7.087c-0.458,1.721-10.894,42.481,18.554,71.93c17.198,17.197,38.348,20.875,53.294,20.875
			c2.924,0,5.599-0.143,7.972-0.351v7.808c0.001,5.523,4.478,10,10.001,10s10-4.478,10-10v-7.813
			c2.387,0.211,5.082,0.356,8.031,0.356c14.946,0,36.099-3.68,53.295-20.875C246.781,105.731,236.346,64.97,235.887,63.249z
			 M136.008,129.441v2.626c-0.078,1.307-0.185,2.519-0.307,3.605c-10.251,1.155-31.088,1.094-46.817-14.636
			C73.148,105.301,73.239,84.572,74.455,74.45c10.114-1.191,30.93-1.271,46.608,14.408c11.259,11.259,14.488,25.131,14.993,35.862
			C135.996,126.357,135.984,127.934,136.008,129.441z M203.192,121.036c-15.721,15.72-36.54,15.788-46.798,14.638
			c-0.156-1.421-0.286-3.053-0.358-4.843c0.054-1.764,0.061-3.634,0.001-5.593c0.437-10.818,3.58-24.986,14.975-36.38
			c15.745-15.746,36.486-15.648,46.603-14.427C218.836,84.568,218.928,105.299,203.192,121.036z" fill="#F5B60E"/>
	</g>
</g>
<g>
</g>
<g>
</g>
<g>
</g>
<g>
</g>
<g>
</g>
<g>
</g>
<g>
</g>
<g>
</g>
<g>
</g>
<g>
</g>
<g>
</g>
<g>
</g>
<g>
</g>
<g>
</g>
<g>
</g>
</svg>
