<?xml version="1.0" encoding="UTF-8"?>
<svg viewBox="0 0 100 100" version="1.1" xmlns="http://www.w3.org/2000/svg" xmlns:xlink="http://www.w3.org/1999/xlink">
    <!-- Generator: Sketch 50.2 (55047) - http://www.bohemiancoding.com/sketch -->
    <title>53. Rocket</title>
    <desc>Created with Sketch.</desc>
    <defs></defs>
    <g id="53.-Rocket" stroke="none" stroke-width="1" fill="none" fill-rule="evenodd" stroke-linecap="round" stroke-linejoin="round">
        <polygon id="Layer-1" stroke="#F5B60E" stroke-width="4" points="34.522658 79.3828075 26.5205511 83.9305233 15.9317182 73.4497397 20.5263176 65.5292869"></polygon>
        <path d="M23.6615396,82.7237263 C22.5874888,86.5952907 20.0045853,90.9820326 18.3067969,92.6624965 C15.5112876,95.4294802 2.21100546,97.5112288 2.21100546,97.5112288 C2.21100546,97.5112288 4.4546571,84.207655 7.10972461,81.5796801 C8.73065103,79.9752937 13.2191146,77.3820165 17.1732534,76.3016471 L23.6615396,82.7237263 Z" id="Layer-2" stroke="#F5B60E" stroke-width="4"></path>
        <path d="M56.8583313,69.6196985 L59.3659891,78.900695 C59.7897608,80.4691004 59.1866304,82.6775496 58.0360929,83.8163469 L52.1678951,89.6246651 C51.009642,90.7710993 49.2869443,90.64259 48.310651,89.3248207 L42.1081322,80.9528601 C44.2847204,79.4674352 49.5153785,75.7554955 56.8583313,69.6196985 L56.8583313,69.6196985 Z" id="Layer-3" stroke="#F5B60E" stroke-width="4"></path>
        <path d="M30.3139636,43.401381 L21.0134004,40.9394593 C19.4288259,40.5200117 17.1976091,41.1169878 16.0470716,42.2557851 L10.1788739,48.0641033 C9.02062077,49.2105375 9.1504549,50.9156566 10.4818095,51.8819877 L18.8905069,57.9852349 C20.3526811,55.8536362 24.0120887,50.7540046 30.3139636,43.401381 L30.3139636,43.401381 Z" id="Layer-4" stroke="#F5B60E" stroke-width="4"></path>
        <path d="M48.1226177,24.3610611 C69.4103134,3.29058684 95.8570559,1.55613815 97.5061899,3.18844418 C99.1553238,4.82075021 97.3411451,31.058846 76.5116793,51.6757663 C55.6822134,72.2926866 40.9841611,81.7036063 40.9841611,81.7036063 C39.6356719,82.6193108 37.5976535,82.4264255 36.4364588,81.2770798 L24.4750074,69.437684 L18.5860016,63.6087701 C17.4269398,62.4615355 17.219196,60.4362375 18.1434505,59.1022676 C18.1434505,59.1022676 26.834922,45.4315354 48.1226177,24.3610611 L48.1226177,24.3610611 Z" id="Layer-5" stroke="#F5B60E" stroke-width="4"></path>
        <path d="M66.714241,33.6661895 C69.0332306,35.961516 72.7930556,35.961516 75.1120452,33.6661895 C77.4310348,31.3708631 77.4310348,27.6494036 75.1120452,25.3540772 C72.7930556,23.0587507 69.0332306,23.0587507 66.714241,25.3540772 C64.3952514,27.6494036 64.3952514,31.3708631 66.714241,33.6661895 L66.714241,33.6661895 Z" id="Layer-6" stroke="#F5B60E" stroke-width="4"></path>
    </g>
</svg>