<svg id="Слой_1" data-name="Слой 1" xmlns="http://www.w3.org/2000/svg" viewBox="0 0 100 100"><title>testМонтажная область 18</title><path d="M50,68.5A20.52,20.52,0,0,0,29.5,89,1.5,1.5,0,0,0,31,90.5H69A1.5,1.5,0,0,0,70.5,89,20.52,20.52,0,0,0,50,68.5Zm-17.44,19a17.5,17.5,0,0,1,34.87,0Z" fill="#F5B60E" stroke="#F5B60E" stroke-width="0.5"/><path d="M50,65.5A10.5,10.5,0,1,0,39.5,55,10.51,10.51,0,0,0,50,65.5Zm0-18A7.5,7.5,0,1,1,42.5,55,7.51,7.51,0,0,1,50,47.5Z" fill="#F5B60E" stroke="#F5B60E" stroke-width="0.5"/><path d="M73.3,51.5A20.7,20.7,0,0,0,65.43,53a1.5,1.5,0,1,0,1.13,2.78A17.72,17.72,0,0,1,73.3,54.5c9,0,16.34,6.6,17.13,15H66.65a1.5,1.5,0,0,0,0,3H92A1.5,1.5,0,0,0,93.5,71C93.5,60.25,84.44,51.5,73.3,51.5Z" fill="#F5B60E" stroke="#F5B60E" stroke-width="0.5"/><path d="M73,47.5A10.5,10.5,0,1,0,62.5,37,10.51,10.51,0,0,0,73,47.5Zm0-18A7.5,7.5,0,1,1,65.5,37,7.51,7.51,0,0,1,73,29.5Z" fill="#F5B60E" stroke="#F5B60E" stroke-width="0.5"/><path d="M34.49,71A1.5,1.5,0,0,0,33,69.5H9.57c.79-8.4,8.18-15,17.14-15a17.76,17.76,0,0,1,6.72,1.3A1.5,1.5,0,0,0,34.56,53a20.74,20.74,0,0,0-7.85-1.52C15.57,51.5,6.5,60.25,6.5,71A1.5,1.5,0,0,0,8,72.5H33A1.5,1.5,0,0,0,34.49,71Z" fill="#F5B60E"  stroke="#F5B60E" stroke-width="0.5"/><path d="M27,47.5A10.5,10.5,0,1,0,16.5,37,10.51,10.51,0,0,0,27,47.5Zm0-18A7.5,7.5,0,1,1,19.5,37,7.51,7.51,0,0,1,27,29.5Z" fill="#F5B60E" stroke="#F5B60E" stroke-width="0.5"/><path d="M44.5,23.76a1.5,1.5,0,0,0-3,0c0,3.57,3,6.54,7,7.15V33a1.5,1.5,0,0,0,3,0V30.92c4-.61,7-3.58,7-7.15s-3-6.54-7-7.15V8.13c2.31.51,4,2.15,4,4.11a1.5,1.5,0,1,0,3,0c0-3.57-3-6.54-7-7.15V3a1.5,1.5,0,0,0-3,0V5.08c-4,.61-7,3.58-7,7.15s3,6.54,7,7.14v8.5C46.2,27.36,44.5,25.72,44.5,23.76Zm11,0c0,2-1.69,3.6-4,4.11V19.66C53.81,20.17,55.5,21.82,55.5,23.76Zm-11-11.53c0-2,1.69-3.6,4-4.11v8.2C46.19,15.82,44.5,14.18,44.5,12.23Z" fill="#F5B60E"  stroke="#F5B60E" stroke-width="0.5"/></svg>