<?xml version="1.0" encoding="iso-8859-1"?>
<!-- Generator: Adobe Illustrator 19.0.0, SVG Export Plug-In . SVG Version: 6.00 Build 0)  -->
<svg version="1.1" id="Capa_1" xmlns="http://www.w3.org/2000/svg" xmlns:xlink="http://www.w3.org/1999/xlink" x="0px" y="0px"
	 viewBox="0 0 512 512" style="enable-background:new 0 0 512 512;" xml:space="preserve">
<g>
	<g>
		<path d="M466,89.94c0-5.522-4.478-10-10-10c-0.265,0-0.525,0.02-0.785,0.04C416.979,79.556,386,48.334,386,10
			c0-5.522-4.478-10-10-10H136c-5.522,0-10,4.478-10,10c0,38.598-31.402,70-70,70c-5.522,0-10,4.478-10,10v165.39
			c0,125.726,79.21,174.786,149.097,218.071c19.606,12.145,38.126,23.614,54.801,36.461c1.798,1.386,3.95,2.078,6.103,2.078
			s4.305-0.692,6.103-2.078c16.8-12.941,35.379-24.466,55.049-36.666C388.89,428.759,466,380.338,466,255.39V90
			c0-0.01-0.001-0.02-0.001-0.03C465.999,89.96,466,89.95,466,89.94z M446,255.39c0,114.413-70.862,158.365-139.391,200.87
			c-17.037,10.567-34.587,21.453-50.61,33.229c-15.918-11.691-33.4-22.52-50.371-33.031C136.982,413.941,66,369.978,66,255.39
			V99.448c41.652-4.626,74.822-37.796,79.448-79.448h221.104c4.626,41.652,37.796,74.822,79.448,79.448V255.39z" fill="#F5B60E"  />
	</g>
</g>
<g>
	<g>
		<path d="M256,86c-82.71,0-150,67.29-150,150s67.29,150,150,150s150-67.29,150-150S338.71,86,256,86z M256,366
			c-71.683,0-130-58.317-130-130s58.317-130,130-130s130,58.317,130,130S327.683,366,256,366z" fill="#F5B60E"  />
	</g>
</g>
<g>
	<g>
		<path d="M260.677,227.875C245.771,219.995,236,214.266,236,206.71c0-11.028,8.972-20,20-20s20,8.972,20,20c0,5.522,4.478,10,10,10
			c5.522,0,10-4.478,10-10c0-18.604-12.767-34.282-30-38.734V156.71c0-5.522-4.478-10-10-10c-5.522,0-10,4.478-10,10v11.266
			c-17.233,4.452-30,20.13-30,38.734c0,20.172,18.771,30.093,35.331,38.847C266.232,253.434,276,259.161,276,266.71
			c0,11.028-8.972,20-20,20s-20-8.972-20-20c0-5.522-4.478-10-10-10c-5.522,0-10,4.478-10,10c0,18.604,12.767,34.282,30,38.734
			v11.266c0,5.522,4.478,10,10,10c5.522,0,10-4.478,10-10v-11.266c17.233-4.452,30-20.13,30-38.734
			C296,246.546,277.234,236.626,260.677,227.875z" fill="#F5B60E"  />
	</g>
</g>
<g>
</g>
<g>
</g>
<g>
</g>
<g>
</g>
<g>
</g>
<g>
</g>
<g>
</g>
<g>
</g>
<g>
</g>
<g>
</g>
<g>
</g>
<g>
</g>
<g>
</g>
<g>
</g>
<g>
</g>
</svg>
