<svg width="251" height="171" viewBox="0 0 251 171" fill="none" xmlns="http://www.w3.org/2000/svg">
<path d="M3.373 123.773C3.27515 118.717 7.21982 114.476 12.2762 114.368C17.1965 114.263 21.1754 117.989 21.5553 122.895C21.9445 127.921 18.3011 132.361 13.2793 132.802C8.06498 133.259 3.47428 129.007 3.373 123.773Z" stroke="#A88771" stroke-width="5" stroke-linecap="round" stroke-linejoin="round"/>
<path d="M23.9998 123.788C23.9998 123.788 47.0076 121.745 69.0952 101.844C94.4254 79.0217 104.081 76.1376 131.418 76.1376C155.369 76.1375 175.425 84.0763 177.814 105.355C179.006 115.964 179.168 126.026 170.04 131.563C160.187 137.54 148.503 132.997 141.575 123.788C134.774 114.749 136.95 105.145 141.575 94.8217C149.32 77.5334 167.412 75.389 186.342 76.1376C209.418 77.0502 233.5 107.5 233.5 107.5" stroke="#A88771" stroke-width="5" stroke-linecap="round" stroke-linejoin="round"/>
<path d="M228.974 116.633C228.876 111.576 232.821 107.336 237.877 107.228C242.797 107.123 246.776 110.849 247.156 115.755C247.545 120.781 243.902 125.221 238.88 125.662C233.666 126.119 229.075 121.866 228.974 116.633Z" stroke="#A88771" stroke-width="5" stroke-linecap="round" stroke-linejoin="round"/>
<path d="M108.219 78.0185C108.219 78.0185 119.295 67.8375 122.881 59.2582C126.357 50.9395 124.772 33.2517 124.772 33.2517" stroke="#A88771" stroke-width="5" stroke-linecap="round" stroke-linejoin="round"/>
<path d="M118.187 44.091C114.231 44.0063 113.485 40.0128 110.036 38.0719C106.534 36.1004 102.347 37.7579 100.506 34.1846C98.7993 30.8708 101.94 28.5022 102.136 24.7798C102.369 20.3612 98.6828 17.1784 101.133 13.4941C103.399 10.0864 107.454 11.9182 110.914 9.73214C113.73 7.95296 114.034 4.69395 117.309 4.08926C121.521 3.31166 122.883 7.81746 126.714 9.73214C130.131 11.4396 133.623 10.3168 135.743 13.4941C138.204 17.1827 134.392 20.3464 134.489 24.7798C134.57 28.4842 137.527 30.9372 135.743 34.1846C133.894 37.549 130.069 36.2063 126.714 38.0719C123.152 40.0528 122.262 44.1782 118.187 44.091Z" stroke="#91A88C" stroke-width="7" stroke-linecap="round" stroke-linejoin="round"/>
<path d="M118.613 38.3579C115.764 38.2975 115.227 35.4497 112.744 34.0656C110.222 32.6597 107.207 33.8417 105.882 31.2935C104.653 28.9303 106.914 27.2413 107.056 24.5868C107.223 21.4358 104.569 19.1661 106.333 16.5387C107.965 14.1086 110.885 15.4149 113.376 13.856C115.404 12.5872 115.623 10.2632 117.981 9.83197C121.014 9.27744 121.994 12.4906 124.753 13.856C127.213 15.0736 129.727 14.273 131.254 16.5387C133.026 19.1691 130.281 21.4252 130.351 24.5868C130.409 27.2284 132.539 28.9777 131.254 31.2935C129.923 33.6927 127.169 32.7352 124.753 34.0656C122.188 35.4782 121.547 38.4201 118.613 38.3579Z" stroke="#F74700" stroke-width="7" stroke-linecap="round" stroke-linejoin="round"/>
<path d="M118.381 34.3455C116.292 34.3015 115.898 32.2281 114.077 31.2204C112.228 30.1968 110.017 31.0574 109.045 29.2021C108.144 27.4816 109.802 26.2518 109.906 24.3191C110.029 22.025 108.082 20.3725 109.376 18.4596C110.573 16.6903 112.714 17.6414 114.541 16.5064C116.028 15.5827 116.188 13.8906 117.918 13.5766C120.142 13.1729 120.861 15.5123 122.884 16.5064C124.688 17.3929 126.531 16.81 127.651 18.4596C128.951 20.3747 126.938 22.0173 126.989 24.3191C127.032 26.2425 128.593 27.5161 127.651 29.2021C126.675 30.9489 124.655 30.2518 122.884 31.2204C121.003 32.2489 120.533 34.3908 118.381 34.3455Z" stroke="#F74700" stroke-width="7" stroke-linecap="round" stroke-linejoin="round"/>
<path d="M118.203 27.9498C115.912 27.9622 114.032 25.9134 114.2 23.752C114.36 21.689 116.017 20.1469 118.203 20.1588C120.381 20.1706 122.004 21.6976 122.164 23.752C122.331 25.907 120.488 27.9374 118.203 27.9498Z" stroke="#91A88C" stroke-width="7" stroke-linecap="round" stroke-linejoin="round"/>
<path d="M116.984 23.9115C116.93 24.5964 117.503 25.1954 118.19 25.1917C118.874 25.1879 119.437 24.593 119.384 23.9115C119.335 23.2806 118.823 22.8191 118.19 22.8157C117.554 22.8122 117.033 23.2768 116.984 23.9115Z" stroke="#F74700" stroke-width="7" stroke-linecap="round" stroke-linejoin="round"/>
</svg>
